<?xml version="1.0" encoding="utf-8"?>
<!-- Designed by Vexels.com - 2017 All Rights Reserved - https://vexels.com/terms-and-conditions/  -->

<svg version="1.1" id="Layer_1" xmlns="http://www.w3.org/2000/svg" xmlns:xlink="http://www.w3.org/1999/xlink" x="0px" y="0px"
	 width="1200px" height="1200px" viewBox="0 0 1200 1200" enable-background="new 0 0 1200 1200" xml:space="preserve">
<g>
	<path fill="#ffffff" d="M1130.386,208.974c13.281-12.431-33.169-5.799-42.298-1.651c-9.101,4.144-24.88,16.584-39.8,28.197
		c-14.928,11.608-9.129,13.268-47.274,14.101c-38.163,0.822-56.394,3.316-67.178,8.296c-10.785,4.976-19.082,10.776-38.978,9.943
		c-19.914-0.832-38.986,2.497-63.043,1.665c-24.049-0.833-29.849-0.833-53.065-13.273c-23.235-12.441-81.293-6.632-87.925-6.632
		c-6.632,0-9.952-4.144-13.264-9.125c-3.321-4.976,5.799-25.713,3.311-63.035c-2.479-37.321-11.599-37.321-14.929-38.149
		c-3.302-0.833,8.297,7.469-24.048-6.632c-32.346-14.106-46.441-3.316-75.476,16.584c-29.015,19.905-6.632,37.322-6.632,37.322
		c-2.497,4.98,0,34.01,3.33,40.637c3.302,6.633,6.632,8.297,3.302,24.881c-3.302,16.589,13.282,7.465,13.282,7.465
		c-3.33,2.493,4.967,10.789,4.967,10.789c-4.153,2.484-0.833,6.627-0.833,6.627c8.297,0.833,7.465,11.613,7.465,11.613
		c-5.799,22.393-25.713,20.733-47.265,36.489c-21.579,15.765-25.713,38.981-27.378,62.211c-1.665,23.216-1.665,93.715-0.832,107.816
		c0.832,14.095,4.162,19.072-0.833,27.364c-4.967,8.297-16.584,38.986-24.049,67.183c-7.46,28.197-19.895,63.863-23.221,77.959
		c-3.316,14.1-19.905,27.373-25.713,33.173c-5.799,5.809-14.092,16.589-27.365,26.545c-13.273,9.944-4.98,20.733-4.98,20.733
		l4.98,7.464c4.977,9.952,17.417,1.66,17.417,1.66c-0.833,17.407,13.273,0,13.273,0c10.776-0.832,18.249-6.64,18.249-6.64
		c6.632,0,4.967-11.608,4.967-11.608c7.465-4.149-4.967-12.44-4.967-12.44c-0.832-4.981,36.489-58.886,36.489-58.886
		c60.547-88.74,68.011-140.994,68.011-140.994l7.465-1.66l8.287-16.589c3.33,5.809-4.135,24.057-8.287,33.173
		c-4.144,9.124-10.794,23.23-14.096,32.354c-3.33,9.124,2.469,14.923,2.469,14.923c-7.455,18.25,12.45,35.662,12.45,35.662
		c-2.488,13.268,4.977,64.695,4.977,73.819s0,0-7.465,2.484c-7.464,2.493,4.153,27.373,4.153,27.373
		c-7.464,3.316-14.115,24.881-26.546,36.494c-12.45,11.608-26.536,42.297-29.034,52.246c-2.47,9.956-2.47,17.416-15.752,25.713
		c-13.264,8.292-33.173,32.34-41.465,43.962c-8.297,11.608-28.197,41.466-35.661,53.896c-7.474,12.45-14.101,35.67-22.398,25.714
		c-8.292-9.949-11.607-18.24-35.656-2.484c-24.062,15.756-12.45,38.981-10.789,44.781c1.665,5.808,0.832,8.296-4.967,14.937
		c-5.808,6.627-5.808,19.9-5.808,19.9c-9.125,14.092,6.627,8.292,6.627,8.292l11.612,9.129c-5.799,13.259,9.124,2.483,9.124,2.483
		c14.092,1.661,32.341-26.546,40.637-36.494c8.293-9.952,35.666-43.962,45.623-53.073c9.948-9.129,50.576-47.279,68.825-62.202
		c18.258-14.938,41.474-61.383,52.259-81.284c10.785-19.905,45.609-47.278,45.609-47.278c13.282,20.741,22.402-9.116,22.402-9.116
		c9.129,8.293,36.48-8.296,48.93-14.937c12.431-6.627-0.833,7.465,35.675-4.144c36.479-11.607,70.481-5.799,70.481-5.799
		s0.53-2.081,0.832-3.316c-0.832,3.316,12.432,0.819,8.297,6.632c-4.135,5.799,10.784,6.627,24.049,11.608
		c13.281,4.976,14.095,14.923,28.201,32.34c14.096,17.422,24.058-16.584,24.058-16.584c11.598-6.632,0.823-9.116,0.823-9.116
		l-0.823-10.789c9.952-5.808-2.497-8.293-2.497-8.293s0-4.98-3.303-20.733c-3.329-15.756,5.8-17.421-7.482-38.986
		c-13.264-21.555-30.68,1.665-42.279,6.641c-11.626,4.977-13.281,4.149-33.178,1.651c-19.913-2.483-60.546-17.408-60.546-17.408
		c23.216-18.249,20.719-38.153,22.383-53.087c1.664-14.924-12.431-4.149,8.297-14.092c20.737-9.957,8.287-49.762,4.985-67.182
		c-3.33-17.417-2.497-40.637,4.967-54.738c7.464-14.096,8.296-24.049,7.464-34.838c-0.832-10.78,7.465-14.924,9.953-29.021
		c2.497-14.1-0.832-34.005,0-49.762c0.833-15.765,16.593-14.1,36.48-25.708c19.913-11.622,43.13-5.813,43.13-5.813
		c6.632-1.661,16.593-26.541,16.593-26.541s12.45-7.465,37.331-6.632c24.88,0.833,66.346-19.9,81.274-25.713
		c14.92-5.808,16.585-15.757,34.834-15.757s43.944-25.708,53.073-33.173c9.12-7.46,22.402-8.292,22.402-8.292
		c2.479,24.049,10.766,0.832,10.766,0.832c14.115,9.111,10.794-9.956,10.794-9.956
		C1156.099,218.931,1130.386,208.974,1130.386,208.974z"/>
	<path fill="#ffffff" d="M127.41,918.913c-42.755,0-77.41,34.664-77.41,77.41c0,42.754,34.655,77.409,77.41,77.409
		c42.754,0,77.409-34.655,77.409-77.409C204.819,953.577,170.165,918.913,127.41,918.913z"/>
</g>
</svg>
