<svg xmlns="http://www.w3.org/2000/svg" width="200" height="200" viewBox="0 0 200 200">
<g>
<path d="M 108.81 176.97 C102.35,180.91 99.71,180.05 81.81,168.19 C72.84,162.24 62.23,155.25 58.23,152.64 C45.49,144.34 41.35,139.61 39.56,131.31 C38.24,125.21 33.79,120.56 26.36,117.48 C17.45,113.80 16.01,112.56 18.19,110.39 C19.67,108.90 20.19,108.90 24.65,110.40 C35.67,114.10 42.78,120.68 45.06,129.29 C47.31,137.72 49.18,139.44 74.88,156.58 C100.67,173.79 103.12,174.88 107.00,171.00 C111.63,166.37 109.09,162.31 96.14,153.66 C88.93,148.84 88.15,147.57 91.24,145.62 C92.52,144.81 95.55,146.39 105.68,153.13 C122.27,164.18 122.33,164.21 125.37,163.05 C128.64,161.81 130.29,158.60 129.50,155.01 C128.99,152.69 126.80,150.83 118.19,145.41 C106.12,137.81 104.49,136.32 106.14,134.33 C106.75,133.60 107.78,133.00 108.43,133.00 C109.08,133.00 116.11,137.04 124.06,141.99 C132.47,147.22 139.58,150.98 141.10,150.99 C145.54,151.01 149.12,144.97 147.01,141.01 C146.40,139.88 139.61,134.85 131.91,129.83 C122.25,123.55 118.00,120.22 118.21,119.11 C118.76,116.23 122.86,116.71 128.28,120.30 L 129.06 120.80 C151.70,135.76 156.57,138.98 159.47,137.70 C160.29,137.34 160.96,136.61 161.83,135.69 C164.45,132.89 164.63,128.92 162.25,126.27 C159.72,123.44 101.63,86.00 99.78,86.00 C98.92,86.00 96.43,88.86 94.24,92.35 C88.78,101.07 84.34,104.29 77.15,104.76 C72.70,105.05 70.54,104.64 67.00,102.81 C60.29,99.36 60.43,96.81 68.01,85.13 C71.35,79.97 73.83,75.50 73.52,75.19 C73.21,74.88 70.76,75.41 68.08,76.38 C64.11,77.80 62.47,77.93 59.35,77.05 C56.26,76.18 21.51,52.91 17.87,49.27 C16.50,47.90 17.93,45.00 19.97,45.00 C20.93,45.00 29.40,50.37 38.78,56.93 C39.10,57.15 39.41,57.37 39.71,57.59 C56.29,69.18 59.97,71.75 63.40,71.47 C64.44,71.38 65.46,71.03 66.81,70.59 C69.39,69.75 73.53,68.76 76.00,68.39 C78.47,68.03 80.95,67.38 81.50,66.96 C82.05,66.54 86.78,64.48 92.00,62.39 C99.96,59.21 102.71,58.58 109.00,58.55 C116.11,58.50 117.12,58.80 128.52,64.25 C135.13,67.41 141.33,70.00 142.30,70.00 C145.96,70.00 150.92,66.95 164.94,56.10 C172.88,49.96 180.08,45.06 180.94,45.23 C181.80,45.39 182.50,46.51 182.50,47.70 C182.50,50.46 154.91,72.41 148.68,74.61 C142.82,76.68 138.52,75.69 125.57,69.29 C114.85,64.00 114.30,63.84 108.00,64.34 C102.24,64.79 92.30,68.10 85.07,71.96 C82.15,73.53 67.65,96.05 68.82,97.22 C69.33,97.73 71.35,98.51 73.30,98.95 C78.90,100.22 83.75,97.47 88.38,90.41 C90.51,87.16 93.17,83.49 94.30,82.25 C98.55,77.58 100.58,78.50 133.59,100.06 L 164.29 120.11 L 167.39 117.19 C171.71,113.12 179.73,108.68 181.51,109.37 C184.74,110.61 183.00,113.72 177.00,117.42 C170.00,121.74 168.67,123.74 169.58,128.58 C171.00,136.14 164.40,144.00 156.63,144.00 C153.48,144.00 153.00,144.31 153.00,146.37 C153.00,151.41 146.05,157.00 139.77,157.00 C136.85,157.00 136.21,157.50 134.47,161.20 C131.13,168.31 126.22,170.57 118.29,168.64 C115.29,167.91 114.99,168.08 113.60,171.41 C112.79,173.36 110.63,175.86 108.81,176.97 ZM 102.79 30.22 C102.56,36.66 102.16,38.54 100.98,38.77 C98.15,39.31 97.00,36.75 97.00,29.92 C97.00,22.91 98.44,20.19 101.53,21.37 C102.79,21.86 103.03,23.50 102.79,30.22 ZM 138.22 46.29 C133.03,51.40 131.92,51.82 129.95,49.44 C128.84,48.10 129.45,47.07 134.23,42.29 C138.00,38.52 140.33,36.91 141.40,37.32 C144.21,38.40 143.13,41.45 138.22,46.29 ZM 70.83 48.62 C70.18,52.02 67.54,51.11 62.08,45.58 C57.47,40.91 56.86,39.87 57.96,38.55 C58.67,37.70 59.77,37.00 60.41,37.00 C62.55,37.00 71.21,46.66 70.83,48.62 Z" fill="rgb(3,3,3)"/>
<path d="M 0.00 100.00 L 0.00 0.00 L 100.00 0.00 L 200.00 0.00 L 200.00 100.00 L 200.00 200.00 L 100.00 200.00 L 0.00 200.00 L 0.00 100.00 ZM 108.81 176.97 C110.63,175.86 112.79,173.36 113.60,171.41 C114.99,168.08 115.29,167.91 118.29,168.64 C126.22,170.57 131.13,168.31 134.47,161.20 C136.21,157.50 136.85,157.00 139.77,157.00 C146.05,157.00 153.00,151.41 153.00,146.37 C153.00,144.31 153.48,144.00 156.63,144.00 C164.40,144.00 171.00,136.14 169.58,128.58 C168.67,123.74 170.00,121.74 177.00,117.42 C183.00,113.72 184.74,110.61 181.51,109.37 C179.73,108.68 171.71,113.12 167.39,117.19 L 164.29 120.11 L 133.59 100.06 C100.58,78.50 98.55,77.58 94.30,82.25 C93.17,83.49 90.51,87.16 88.38,90.41 C83.75,97.47 78.90,100.22 73.30,98.95 C71.35,98.51 69.33,97.73 68.82,97.22 C67.65,96.05 82.15,73.53 85.07,71.96 C92.30,68.10 102.24,64.79 108.00,64.34 C114.30,63.84 114.85,64.00 125.57,69.29 C138.52,75.69 142.82,76.68 148.68,74.61 C154.91,72.41 182.50,50.46 182.50,47.70 C182.50,46.51 181.80,45.39 180.94,45.23 C180.08,45.06 172.88,49.96 164.94,56.10 C150.92,66.95 145.96,70.00 142.30,70.00 C141.33,70.00 135.13,67.41 128.52,64.25 C117.12,58.80 116.11,58.50 109.00,58.55 C102.71,58.58 99.96,59.21 92.00,62.39 C86.78,64.48 82.05,66.54 81.50,66.96 C80.95,67.38 78.47,68.03 76.00,68.39 C73.53,68.76 69.39,69.75 66.81,70.59 C60.93,72.51 61.33,72.71 38.78,56.93 C29.40,50.37 20.93,45.00 19.97,45.00 C17.93,45.00 16.50,47.90 17.87,49.27 C21.51,52.91 56.26,76.18 59.35,77.05 C62.47,77.93 64.11,77.80 68.08,76.38 C70.76,75.41 73.21,74.88 73.52,75.19 C73.83,75.50 71.35,79.97 68.01,85.13 C60.43,96.81 60.29,99.36 67.00,102.81 C70.54,104.64 72.70,105.05 77.15,104.76 C84.34,104.29 88.78,101.07 94.24,92.35 C96.43,88.86 98.92,86.00 99.78,86.00 C101.63,86.00 159.72,123.44 162.25,126.27 C164.63,128.92 164.45,132.89 161.83,135.69 C157.87,139.89 158.17,140.03 128.28,120.30 C122.86,116.71 118.76,116.23 118.21,119.11 C118.00,120.22 122.25,123.55 131.91,129.83 C139.61,134.85 146.40,139.88 147.01,141.01 C149.12,144.97 145.54,151.01 141.10,150.99 C139.58,150.98 132.47,147.22 124.06,141.99 C116.11,137.04 109.08,133.00 108.43,133.00 C107.78,133.00 106.75,133.60 106.14,134.33 C104.49,136.32 106.12,137.81 118.19,145.41 C126.80,150.83 128.99,152.69 129.50,155.01 C130.29,158.60 128.64,161.81 125.37,163.05 C122.33,164.21 122.27,164.18 105.68,153.13 C95.55,146.39 92.52,144.81 91.24,145.62 C88.15,147.57 88.93,148.84 96.14,153.66 C109.09,162.31 111.63,166.37 107.00,171.00 C103.12,174.88 100.67,173.79 74.88,156.58 C49.18,139.44 47.31,137.72 45.06,129.29 C42.78,120.68 35.67,114.10 24.65,110.40 C20.19,108.90 19.67,108.90 18.19,110.39 C16.01,112.56 17.45,113.80 26.36,117.48 C33.79,120.56 38.24,125.21 39.56,131.31 C41.35,139.61 45.49,144.34 58.23,152.64 C62.23,155.25 72.84,162.24 81.81,168.19 C99.71,180.05 102.35,180.91 108.81,176.97 ZM 70.83 48.62 C71.21,46.66 62.55,37.00 60.41,37.00 C59.77,37.00 58.67,37.70 57.96,38.55 C56.86,39.87 57.47,40.91 62.08,45.58 C67.54,51.11 70.18,52.02 70.83,48.62 ZM 138.22 46.29 C143.13,41.45 144.21,38.40 141.40,37.32 C140.33,36.91 138.00,38.52 134.23,42.29 C129.45,47.07 128.84,48.10 129.95,49.44 C131.92,51.82 133.03,51.40 138.22,46.29 ZM 102.79 30.22 C103.03,23.50 102.79,21.86 101.53,21.37 C98.44,20.19 97.00,22.91 97.00,29.92 C97.00,36.75 98.15,39.31 100.98,38.77 C102.16,38.54 102.56,36.66 102.79,30.22 Z" fill="rgb(254,254,254)"/>
</g>
</svg>