<svg fill="#ffffff" height="32px" width="32px" version="1.1" id="Layer_1" xmlns="http://www.w3.org/2000/svg" xmlnsXlink="http://www.w3.org/1999/xlink" viewBox="0 0 512.002 512.002" xmlSpace="preserve" stroke="#ffffff" stroke-width="11"><g id="SVGRepo_bgCarrier" stroke-width="0"></g><g id="SVGRepo_tracerCarrier" stroke-linecap="round" stroke-linejoin="round" stroke="#CCCCCC" stroke-width="5.120019999999999"></g><g id="SVGRepo_iconCarrier"> <g> <g> <path d="M507.102,205.962c-8.839-44.665-29.636-86.324-60.143-120.477c-31.091-34.781-70.942-60.405-115.246-74.102 c-24.431-7.552-49.907-11.382-75.719-11.382c-25.826,0-51.303,3.833-75.717,11.393C135.983,25.081,96.135,50.701,65.04,85.488 c-30.506,34.15-51.303,75.81-60.14,120.466C1.649,222.301,0,239.14,0,256.006c0,59.549,20.901,117.547,58.854,163.308 c30.61,36.913,70.702,64.416,115.943,79.535c26.091,8.726,53.41,13.151,81.199,13.151c27.796,0,55.119-4.425,81.208-13.151 c45.241-15.12,85.334-42.623,115.944-79.535c37.953-45.762,58.855-103.759,58.855-163.308 C512,239.143,510.352,222.306,507.102,205.962z M438.836,100.315c24.404,28.642,41.722,62.555,50.533,98.893l-72.444-3.542 l-0.744-86.481L438.836,100.315z M427.363,87.772l-27.137,10.622L401.092,199l-70.394,46.935l-66.773-62.004V90.561l67.442-62.631 C367.607,39.897,400.517,60.434,427.363,87.772z M320.365,257.987l-32.61,74.536h-63.52l-32.611-74.536l64.371-59.775 L320.365,257.987z M255.995,15.863c19.519,0,38.828,2.336,57.58,6.95L255.994,76.28l-57.578-53.463 C217.159,18.201,236.467,15.863,255.995,15.863z M180.626,27.938l67.438,62.621v93.371l-66.772,62.004L110.899,199l0.878-100.607 L84.634,87.776C111.483,60.432,144.39,39.899,180.626,27.938z M73.16,100.319l22.66,8.866l-0.754,86.48l-72.433,3.542 C31.442,162.871,48.758,128.959,73.16,100.319z M74.068,412.737l4.53-11.577h85.471l4.618,78.609 C132.245,465.548,99.791,442.578,74.068,412.737z M168.016,385.299H67.772l-5.128,13.102 c-30.25-41.069-46.783-91.113-46.783-142.394c0-13.702,1.163-27.38,3.454-40.757l81.391-3.981l75.061,50.047l33.966,77.633 L168.016,385.299z M327.09,485.439c-22.924,7.1-46.813,10.7-71.096,10.7c-24.276,0-48.161-3.601-71.085-10.7l-5.25-89.367 l42.92-47.688h66.83l42.931,47.689L327.09,485.439z M343.313,479.769l4.618-78.609h85.471l4.53,11.576 C412.21,442.577,379.756,465.547,343.313,479.769z M449.354,398.402l-5.126-13.102H343.983l-41.726-46.352l33.965-77.633 l75.06-50.046l81.404,3.981c2.289,13.373,3.454,27.052,3.454,40.757C496.138,307.288,479.605,357.332,449.354,398.402z"></path> </g> </g> </g></svg>